<svg width="129" height="129" viewBox="0 0 129 129" fill="none" xmlns="http://www.w3.org/2000/svg">
<g clip-path="url(#clip0_685_99)">
<path opacity="0.5" d="M93.9748 40.3969C89.2635 34.5789 82.9327 30.2886 75.783 28.0685C68.6333 25.8485 60.9859 25.7985 53.8078 27.9247C46.6297 30.051 40.2433 34.258 35.4562 40.0139C30.6691 45.7698 27.6963 52.8159 26.9138 60.2613C26.1312 67.7067 27.5741 75.2169 31.0598 81.8423C34.5456 88.4677 39.9178 93.9106 46.497 97.4828C53.0761 101.055 60.5668 102.596 68.0218 101.911C75.4768 101.226 82.5613 98.3457 88.3793 93.6344C92.2424 90.5062 95.4514 86.6477 97.8233 82.2793C100.195 77.9109 101.683 73.1181 102.203 68.1745C102.723 63.2309 102.263 58.2335 100.852 53.4674C99.4397 48.7013 97.103 44.2599 93.9748 40.3969ZM41.0252 83.2747C37.2561 78.6203 34.9518 72.9527 34.4038 66.9887C33.8558 61.0247 35.0886 55.0321 37.9464 49.7688C40.8042 44.5054 45.1585 40.2077 50.4588 37.4191C55.7591 34.6305 61.7673 33.4762 67.7236 34.1022C73.6799 34.7283 79.3168 37.1065 83.9215 40.9362C88.5262 44.7659 91.8919 49.875 93.5929 55.6175C95.2939 61.36 95.2538 67.4779 93.4778 73.1976C91.7018 78.9174 88.2696 83.982 83.6151 87.7511C77.3737 92.8053 69.3802 95.173 61.393 94.3336C53.4059 93.4941 46.0793 89.5161 41.0252 83.2747Z" fill="black"/>
<path d="M83.6152 87.7511L88.3794 93.6344C92.2424 90.5062 95.4515 86.6477 97.8233 82.2793C100.195 77.9109 101.683 73.1181 102.203 68.1745C102.723 63.231 102.263 58.2335 100.852 53.4674C99.4398 48.7013 97.1031 44.2599 93.9749 40.3969L88.0916 45.1611C93.1457 51.4025 95.5135 59.396 94.674 67.3832C93.8346 75.3704 89.8566 82.6969 83.6152 87.7511Z" fill="black"/>
</g>
<defs>
<clipPath id="clip0_685_99">
<rect width="90.8447" height="90.8447" fill="white" transform="translate(71.2729 0.332947) rotate(51)"/>
</clipPath>
</defs>
</svg>
